<?xml version="1.0" standalone="no"?>
<!DOCTYPE svg PUBLIC "-//W3C//DTD SVG 20010904//EN"
 "http://www.w3.org/TR/2001/REC-SVG-20010904/DTD/svg10.dtd">
<svg version="1.0" xmlns="http://www.w3.org/2000/svg"
 width="1073.000000pt" height="1073.000000pt" viewBox="0 0 1073.000000 1073.000000"
 preserveAspectRatio="xMidYMid meet">
<metadata>
Created by potrace 1.11, written by Peter Selinger 2001-2013
</metadata>
<g transform="translate(0.000000,1073.000000) scale(0.100000,-0.100000)"
fill="#000000" stroke="none">
<path d="M3044 8133 c4 -10 53 -128 109 -262 113 -271 148 -325 251 -379 l51
-27 1890 -3 c2092 -2 1931 -7 2027 63 67 49 95 96 193 330 48 116 96 229 106
253 l18 42 -2325 0 c-2211 0 -2326 -1 -2320 -17z"/>
<path d="M3473 7098 c114 -280 1881 -4505 1886 -4510 4 -5 1848 4394 1887
4505 6 16 -11 17 -265 17 -248 0 -275 -2 -325 -21 -68 -25 -143 -91 -177 -156
-15 -26 -271 -634 -569 -1350 -299 -717 -546 -1303 -549 -1303 -3 0 -256 600
-561 1332 -533 1281 -556 1333 -604 1385 -27 30 -72 66 -100 81 l-51 27 -289
3 c-235 3 -288 1 -283 -10z"/>
<path d="M5230 2208 c-37 -14 -73 -40 -111 -77 -71 -72 -99 -140 -99 -246 0
-105 28 -174 99 -246 72 -71 141 -99 246 -99 105 0 174 28 246 99 71 72 99
141 99 246 0 105 -28 174 -99 246 -73 72 -141 99 -249 98 -53 0 -94 -7 -132
-21z"/>
</g>
</svg>
